<svg width="951" height="728" viewBox="0 0 951 728" fill="none" xmlns="http://www.w3.org/2000/svg">
<g opacity="0.3">
<path d="M499.807 727.197H281.28C233.887 726.419 187.696 712.158 148.112 686.085C108.529 660.011 77.1895 623.203 57.7622 579.968L0.724113 459.832C0.154926 458.477 -0.0842565 457.007 0.0262825 455.543C0.136821 454.078 0.593917 452.66 1.35989 451.407C2.12585 450.154 3.17876 449.1 4.4318 448.334C5.68485 447.567 7.10214 447.109 8.56684 446.998H214.617C262.01 447.777 308.201 462.037 347.784 488.111C387.368 514.184 418.707 550.992 438.135 594.227L499.807 727.197Z" fill="#009B51"/>
<path d="M452.783 727.197H670.597C717.929 726.351 764.044 712.059 803.558 685.99C843.073 659.92 874.357 623.149 893.758 579.968L950.084 459.832C950.733 458.512 951.046 457.051 950.994 455.581C950.942 454.111 950.527 452.676 949.786 451.405C949.044 450.134 948 449.067 946.746 448.298C945.491 447.529 944.066 447.082 942.597 446.998H738.33C690.937 447.777 644.746 462.037 605.162 488.111C565.579 514.184 534.239 550.992 514.812 594.227L452.783 727.197Z" fill="#009B51"/>
<path d="M468.77 3.56488L377.509 128.336C348.009 168.514 333.874 217.929 337.667 267.63C341.46 317.331 362.93 364.03 398.185 399.266L469.483 470.564C470.283 471.416 471.25 472.096 472.323 472.56C473.396 473.025 474.552 473.265 475.722 473.265C476.891 473.265 478.048 473.025 479.121 472.56C480.194 472.096 481.16 471.416 481.96 470.564L553.258 399.266C588.633 364.113 610.214 317.428 614.074 267.706C617.934 217.984 603.817 168.528 574.29 128.336L483.03 3.56488C482.199 2.45802 481.123 1.55964 479.885 0.940885C478.648 0.322132 477.283 0 475.9 0C474.516 0 473.152 0.322132 471.914 0.940885C470.677 1.55964 469.6 2.45802 468.77 3.56488Z" fill="#009B51"/>
</g>
</svg>
